<svg xmlns="http://www.w3.org/2000/svg" viewBox="0 0 380 250">

  <!-- ======= BOY (left, scaled ~0.62, centered x=82) ======= -->
  <g transform="translate(82,10) scale(0.62)">
    <!-- shadow -->
    <ellipse cx="100" cy="276" rx="40" ry="5" fill="rgba(0,0,0,0.10)"/>
    <!-- HAIR back -->
    <ellipse cx="100" cy="54" rx="44" ry="40" fill="#7B4A20"/>
    <ellipse cx="58" cy="72" rx="11" ry="15" fill="#7B4A20"/>
    <ellipse cx="142" cy="72" rx="11" ry="15" fill="#7B4A20"/>
    <!-- HEAD -->
    <circle cx="100" cy="68" r="40" fill="#FDBF96"/>
    <!-- EARS -->
    <ellipse cx="60" cy="72" rx="9" ry="11" fill="#FDBF96"/>
    <ellipse cx="140" cy="72" rx="9" ry="11" fill="#FDBF96"/>
    <ellipse cx="60" cy="73" rx="5" ry="7" fill="#F0A880"/>
    <ellipse cx="140" cy="73" rx="5" ry="7" fill="#F0A880"/>
    <!-- EYEBROWS -->
    <path d="M80,52 Q87,47 94,52" stroke="#6B3D1E" stroke-width="2.5" fill="none" stroke-linecap="round"/>
    <path d="M106,52 Q113,47 120,52" stroke="#6B3D1E" stroke-width="2.5" fill="none" stroke-linecap="round"/>
    <!-- EYES -->
    <circle cx="87" cy="65" r="9.5" fill="white"/>
    <circle cx="113" cy="65" r="9.5" fill="white"/>
    <circle cx="87" cy="65" r="6.5" fill="#4A8BC4"/>
    <circle cx="113" cy="65" r="6.5" fill="#4A8BC4"/>
    <circle cx="87" cy="65" r="3.5" fill="#1A1A2E"/>
    <circle cx="113" cy="65" r="3.5" fill="#1A1A2E"/>
    <circle cx="89.5" cy="62.5" r="2" fill="white"/>
    <circle cx="115.5" cy="62.5" r="2" fill="white"/>
    <!-- raised eyebrows = looking at map -->
    <!-- NOSE -->
    <circle cx="96" cy="79" r="3" fill="#E89060"/>
    <circle cx="104" cy="79" r="3" fill="#E89060"/>
    <!-- open mouth smiling -->
    <path d="M84,89 Q100,102 116,89" stroke="#C86844" stroke-width="2.5" fill="none" stroke-linecap="round"/>
    <!-- CHEEKS -->
    <circle cx="70" cy="80" r="13" fill="#F07050" opacity="0.22"/>
    <circle cx="130" cy="80" r="13" fill="#F07050" opacity="0.22"/>
    <!-- NECK -->
    <rect x="90" y="106" width="20" height="18" rx="5" fill="#FDBF96"/>
    <!-- SHIRT -->
    <path d="M56,130 L68,108 L90,108 L100,124 L110,108 L132,108 L144,130 L144,194 Q144,202 134,202 L66,202 Q56,202 56,194 Z" fill="#2874BC"/>
    <path d="M90,108 L100,128 L110,108" fill="#1A5490"/>
    <!-- LEFT ARM (down, holding map side) -->
    <path d="M58,130 Q44,155 60,185" stroke="#2874BC" stroke-width="22" fill="none" stroke-linecap="round"/>
    <circle cx="62" cy="191" r="13" fill="#FDBF96"/>
    <!-- RIGHT ARM (raised toward map) -->
    <path d="M142,130 Q170,148 178,168" stroke="#2874BC" stroke-width="22" fill="none" stroke-linecap="round"/>
    <circle cx="181" cy="174" r="13" fill="#FDBF96"/>
    <!-- PANTS -->
    <rect x="60" y="196" width="80" height="58" rx="10" fill="#1A2E4A"/>
    <rect x="96" y="202" width="8" height="52" rx="4" fill="#142038"/>
    <!-- SHOES -->
    <ellipse cx="78" cy="258" rx="22" ry="11" fill="#2A2A3A"/>
    <ellipse cx="122" cy="258" rx="22" ry="11" fill="#2A2A3A"/>
  </g>

  <!-- ======= MAP (center) ======= -->
  <!-- Map body -->
  <rect x="126" y="88" width="128" height="96" rx="4" fill="#F0E6C0" stroke="#C8A84A" stroke-width="2.5"/>
  <!-- Map fold lines -->
  <line x1="148" y1="88" x2="148" y2="184" stroke="#C8A84A" stroke-width="1.5" stroke-dasharray="4,3"/>
  <line x1="190" y1="88" x2="190" y2="184" stroke="#C8A84A" stroke-width="1.5" stroke-dasharray="4,3"/>
  <line x1="232" y1="88" x2="232" y2="184" stroke="#C8A84A" stroke-width="1.5" stroke-dasharray="4,3"/>
  <line x1="126" y1="112" x2="254" y2="112" stroke="#C8A84A" stroke-width="1.5" stroke-dasharray="4,3"/>
  <line x1="126" y1="136" x2="254" y2="136" stroke="#C8A84A" stroke-width="1.5" stroke-dasharray="4,3"/>
  <line x1="126" y1="160" x2="254" y2="160" stroke="#C8A84A" stroke-width="1.5" stroke-dasharray="4,3"/>
  <!-- Roads on map -->
  <path d="M148,118 Q170,124 190,116 Q210,108 230,120" stroke="#D4A860" stroke-width="3" fill="none"/>
  <path d="M136,145 Q165,138 190,150 Q215,162 248,148" stroke="#D4A860" stroke-width="2.5" fill="none"/>
  <!-- Castle icon on map -->
  <rect x="180" y="96" width="20" height="14" rx="2" fill="#A89880"/>
  <rect x="180" y="90" width="4" height="8" rx="1" fill="#A89880"/>
  <rect x="188" y="90" width="4" height="8" rx="1" fill="#A89880"/>
  <rect x="196" y="90" width="4" height="8" rx="1" fill="#A89880"/>
  <!-- Red marker X -->
  <circle cx="193" cy="103" r="5" fill="#E53935" opacity="0.8"/>
  <!-- Forest dots on map -->
  <circle cx="142" cy="130" r="4" fill="#7CB87C"/>
  <circle cx="150" cy="126" r="3" fill="#7CB87C"/>
  <circle cx="146" cy="122" r="3.5" fill="#7CB87C"/>
  <!-- Map title area -->
  <rect x="134" y="165" width="112" height="12" rx="3" fill="#E8D890" opacity="0.6"/>
  <text x="190" y="174" font-family="sans-serif" font-size="7" fill="#8B6A20" text-anchor="middle" font-weight="bold">MAPA HRA-D</text>

  <!-- ======= GIRL (right, scaled ~0.62, centered x=298) ======= -->
  <g transform="translate(298,14) scale(0.62)">
    <!-- shadow -->
    <ellipse cx="100" cy="286" rx="40" ry="5" fill="rgba(0,0,0,0.10)"/>
    <!-- PIGTAILS -->
    <ellipse cx="56" cy="50" rx="18" ry="20" fill="#8B4A1E"/>
    <ellipse cx="144" cy="50" rx="18" ry="20" fill="#8B4A1E"/>
    <circle cx="66" cy="64" r="7" fill="#F5A623"/>
    <circle cx="134" cy="64" r="7" fill="#F5A623"/>
    <!-- HAIR back -->
    <circle cx="100" cy="58" r="44" fill="#8B4A1E"/>
    <!-- HEAD -->
    <circle cx="100" cy="68" r="40" fill="#FDBF96"/>
    <!-- EARS -->
    <ellipse cx="60" cy="72" rx="9" ry="11" fill="#FDBF96"/>
    <ellipse cx="140" cy="72" rx="9" ry="11" fill="#FDBF96"/>
    <ellipse cx="60" cy="73" rx="5" ry="7" fill="#F0A880"/>
    <ellipse cx="140" cy="73" rx="5" ry="7" fill="#F0A880"/>
    <!-- EYEBROWS -->
    <path d="M79,51 Q87,45 95,50" stroke="#6B3D1E" stroke-width="2.5" fill="none" stroke-linecap="round"/>
    <path d="M105,50 Q113,45 121,51" stroke="#6B3D1E" stroke-width="2.5" fill="none" stroke-linecap="round"/>
    <!-- EYES -->
    <circle cx="87" cy="65" r="9.5" fill="white"/>
    <circle cx="113" cy="65" r="9.5" fill="white"/>
    <circle cx="87" cy="65" r="6.5" fill="#3D9B8A"/>
    <circle cx="113" cy="65" r="6.5" fill="#3D9B8A"/>
    <circle cx="87" cy="65" r="3.5" fill="#1A1A2E"/>
    <circle cx="113" cy="65" r="3.5" fill="#1A1A2E"/>
    <circle cx="89.5" cy="62.5" r="2" fill="white"/>
    <circle cx="115.5" cy="62.5" r="2" fill="white"/>
    <!-- LASHES -->
    <line x1="78" y1="57" x2="75" y2="52" stroke="#1A1A2E" stroke-width="1.5" stroke-linecap="round"/>
    <line x1="85" y1="55" x2="84" y2="50" stroke="#1A1A2E" stroke-width="1.5" stroke-linecap="round"/>
    <line x1="93" y1="55" x2="95" y2="50" stroke="#1A1A2E" stroke-width="1.5" stroke-linecap="round"/>
    <line x1="107" y1="55" x2="105" y2="50" stroke="#1A1A2E" stroke-width="1.5" stroke-linecap="round"/>
    <line x1="115" y1="55" x2="116" y2="50" stroke="#1A1A2E" stroke-width="1.5" stroke-linecap="round"/>
    <line x1="122" y1="57" x2="125" y2="52" stroke="#1A1A2E" stroke-width="1.5" stroke-linecap="round"/>
    <!-- NOSE -->
    <circle cx="96" cy="79" r="3" fill="#E89060"/>
    <circle cx="104" cy="79" r="3" fill="#E89060"/>
    <!-- SMILE -->
    <path d="M84,89 Q100,104 116,89" stroke="#C86844" stroke-width="2.5" fill="none" stroke-linecap="round"/>
    <!-- CHEEKS -->
    <circle cx="70" cy="80" r="13" fill="#F07050" opacity="0.25"/>
    <circle cx="130" cy="80" r="13" fill="#F07050" opacity="0.25"/>
    <!-- NECK -->
    <rect x="90" y="106" width="20" height="16" rx="5" fill="#FDBF96"/>
    <!-- DRESS BODICE -->
    <path d="M58,122 L70,108 L90,108 L100,122 L110,108 L130,108 L142,122 L142,170 L58,170 Z" fill="#F5A623"/>
    <path d="M90,108 L100,126 L110,108" fill="#E09010"/>
    <!-- LEFT ARM (toward map) -->
    <path d="M60,122 Q28,145 22,168" stroke="#F5A623" stroke-width="22" fill="none" stroke-linecap="round"/>
    <circle cx="19" cy="174" r="13" fill="#FDBF96"/>
    <!-- RIGHT ARM (down, natural) -->
    <path d="M140,122 Q156,148 156,172" stroke="#F5A623" stroke-width="22" fill="none" stroke-linecap="round"/>
    <circle cx="157" cy="178" r="13" fill="#FDBF96"/>
    <!-- DRESS SKIRT -->
    <path d="M52,168 L58,170 L142,170 L148,168 L156,218 L44,218 Z" fill="#F5A623"/>
    <path d="M44,218 Q100,228 156,218" stroke="#E09010" stroke-width="3" fill="none"/>
    <!-- LEGS -->
    <rect x="73" y="214" width="22" height="50" rx="10" fill="#FDBF96"/>
    <rect x="105" y="214" width="22" height="50" rx="10" fill="#FDBF96"/>
    <!-- SOCKS -->
    <rect x="73" y="244" width="22" height="22" rx="7" fill="white"/>
    <rect x="105" y="244" width="22" height="22" rx="7" fill="white"/>
    <!-- SHOES -->
    <ellipse cx="84" cy="268" rx="20" ry="10" fill="#E03030"/>
    <ellipse cx="116" cy="268" rx="20" ry="10" fill="#E03030"/>
    <rect x="76" y="262" width="16" height="4" rx="2" fill="#B02020"/>
    <rect x="108" y="262" width="16" height="4" rx="2" fill="#B02020"/>
  </g>

</svg>
