<svg xmlns="http://www.w3.org/2000/svg" viewBox="0 0 200 290">
  <!-- shadow -->
  <ellipse cx="100" cy="286" rx="40" ry="5" fill="rgba(0,0,0,0.10)"/>

  <!-- PIGTAILS -->
  <ellipse cx="56" cy="50" rx="18" ry="20" fill="#8B4A1E"/>
  <ellipse cx="144" cy="50" rx="18" ry="20" fill="#8B4A1E"/>
  <circle cx="66" cy="64" r="7" fill="#F5A623"/>
  <circle cx="134" cy="64" r="7" fill="#F5A623"/>

  <!-- HAIR back -->
  <circle cx="100" cy="58" r="44" fill="#8B4A1E"/>

  <!-- HEAD -->
  <circle cx="100" cy="68" r="40" fill="#FDBF96"/>

  <!-- EARS -->
  <ellipse cx="60" cy="72" rx="9" ry="11" fill="#FDBF96"/>
  <ellipse cx="140" cy="72" rx="9" ry="11" fill="#FDBF96"/>
  <ellipse cx="60" cy="73" rx="5" ry="7" fill="#F0A880"/>
  <ellipse cx="140" cy="73" rx="5" ry="7" fill="#F0A880"/>

  <!-- EYEBROWS -->
  <path d="M79,51 Q87,45 95,50" stroke="#6B3D1E" stroke-width="2.5" fill="none" stroke-linecap="round"/>
  <path d="M105,50 Q113,45 121,51" stroke="#6B3D1E" stroke-width="2.5" fill="none" stroke-linecap="round"/>

  <!-- EYES -->
  <circle cx="87" cy="65" r="9.5" fill="white"/>
  <circle cx="113" cy="65" r="9.5" fill="white"/>
  <circle cx="87" cy="65" r="6.5" fill="#3D9B8A"/>
  <circle cx="113" cy="65" r="6.5" fill="#3D9B8A"/>
  <circle cx="87" cy="65" r="3.5" fill="#1A1A2E"/>
  <circle cx="113" cy="65" r="3.5" fill="#1A1A2E"/>
  <circle cx="89.5" cy="62.5" r="2" fill="white"/>
  <circle cx="115.5" cy="62.5" r="2" fill="white"/>
  <!-- LASHES -->
  <line x1="78" y1="57" x2="75" y2="52" stroke="#1A1A2E" stroke-width="1.5" stroke-linecap="round"/>
  <line x1="85" y1="55" x2="84" y2="50" stroke="#1A1A2E" stroke-width="1.5" stroke-linecap="round"/>
  <line x1="93" y1="55" x2="95" y2="50" stroke="#1A1A2E" stroke-width="1.5" stroke-linecap="round"/>
  <line x1="107" y1="55" x2="105" y2="50" stroke="#1A1A2E" stroke-width="1.5" stroke-linecap="round"/>
  <line x1="115" y1="55" x2="116" y2="50" stroke="#1A1A2E" stroke-width="1.5" stroke-linecap="round"/>
  <line x1="122" y1="57" x2="125" y2="52" stroke="#1A1A2E" stroke-width="1.5" stroke-linecap="round"/>

  <!-- NOSE -->
  <circle cx="96" cy="79" r="3" fill="#E89060"/>
  <circle cx="104" cy="79" r="3" fill="#E89060"/>

  <!-- SMILE -->
  <path d="M84,89 Q100,104 116,89" stroke="#C86844" stroke-width="2.5" fill="none" stroke-linecap="round"/>

  <!-- CHEEKS -->
  <circle cx="70" cy="80" r="13" fill="#F07050" opacity="0.25"/>
  <circle cx="130" cy="80" r="13" fill="#F07050" opacity="0.25"/>

  <!-- NECK -->
  <rect x="90" y="106" width="20" height="16" rx="5" fill="#FDBF96"/>

  <!-- DRESS BODICE -->
  <path d="M58,122 L70,108 L90,108 L100,122 L110,108 L130,108 L142,122 L142,170 L58,170 Z" fill="#F5A623"/>
  <path d="M90,108 L100,126 L110,108" fill="#E09010"/>
  <path d="M92,118 L100,126 L108,118 Q100,112 92,118 Z" fill="#E09010"/>

  <!-- DRESS SKIRT -->
  <path d="M52,168 L58,170 L142,170 L148,168 L156,218 L44,218 Z" fill="#F5A623"/>
  <path d="M44,218 Q100,228 156,218" stroke="#E09010" stroke-width="3" fill="none"/>

  <!-- LEFT ARM -->
  <path d="M60,122 Q44,148 40,168" stroke="#F5A623" stroke-width="22" fill="none" stroke-linecap="round"/>
  <circle cx="39" cy="174" r="13" fill="#FDBF96"/>

  <!-- RIGHT ARM -->
  <path d="M140,122 Q156,148 160,168" stroke="#F5A623" stroke-width="22" fill="none" stroke-linecap="round"/>
  <circle cx="161" cy="174" r="13" fill="#FDBF96"/>

  <!-- LEGS -->
  <rect x="73" y="214" width="22" height="50" rx="10" fill="#FDBF96"/>
  <rect x="105" y="214" width="22" height="50" rx="10" fill="#FDBF96"/>

  <!-- SOCKS -->
  <rect x="73" y="244" width="22" height="22" rx="7" fill="white"/>
  <rect x="105" y="244" width="22" height="22" rx="7" fill="white"/>

  <!-- SHOES -->
  <ellipse cx="84" cy="268" rx="20" ry="10" fill="#E03030"/>
  <ellipse cx="116" cy="268" rx="20" ry="10" fill="#E03030"/>
  <rect x="76" y="262" width="16" height="4" rx="2" fill="#B02020"/>
  <rect x="108" y="262" width="16" height="4" rx="2" fill="#B02020"/>
</svg>
