<svg xmlns="http://www.w3.org/2000/svg" viewBox="0 0 280 210">

  <!-- SKY -->
  <rect x="0" y="0" width="280" height="175" fill="#B8D8F0"/>
  <!-- Clouds -->
  <ellipse cx="45" cy="28" rx="30" ry="16" fill="white" opacity="0.92"/>
  <ellipse cx="64" cy="22" rx="22" ry="14" fill="white" opacity="0.92"/>
  <ellipse cx="25" cy="32" rx="18" ry="12" fill="white" opacity="0.92"/>
  <ellipse cx="210" cy="38" rx="26" ry="14" fill="white" opacity="0.92"/>
  <ellipse cx="230" cy="32" rx="20" ry="12" fill="white" opacity="0.92"/>

  <!-- GROUND -->
  <rect x="0" y="172" width="280" height="38" fill="#5CB85C"/>
  <ellipse cx="140" cy="174" rx="148" ry="12" fill="#6DC86D"/>
  <!-- Grass tufts -->
  <path d="M20,174 Q24,166 28,174" stroke="#4A9A4A" stroke-width="1.5" fill="none"/>
  <path d="M240,174 Q244,166 248,174" stroke="#4A9A4A" stroke-width="1.5" fill="none"/>
  <path d="M118,174 Q122,168 126,174" stroke="#4A9A4A" stroke-width="1.5" fill="none"/>

  <!-- ===== CASTLE ===== -->

  <!-- CONNECTING WALLS -->
  <!-- Left wall -->
  <rect x="62" y="108" width="52" height="64" fill="#A89878"/>
  <!-- Right wall -->
  <rect x="166" y="108" width="52" height="64" fill="#A89878"/>
  <!-- Stone texture rows on walls -->
  <rect x="62" y="114" width="52" height="5" fill="#9A8870" opacity="0.7"/>
  <rect x="62" y="128" width="52" height="5" fill="#9A8870" opacity="0.7"/>
  <rect x="62" y="142" width="52" height="5" fill="#9A8870" opacity="0.7"/>
  <rect x="62" y="156" width="52" height="5" fill="#9A8870" opacity="0.7"/>
  <rect x="166" y="114" width="52" height="5" fill="#9A8870" opacity="0.7"/>
  <rect x="166" y="128" width="52" height="5" fill="#9A8870" opacity="0.7"/>
  <rect x="166" y="142" width="52" height="5" fill="#9A8870" opacity="0.7"/>
  <rect x="166" y="156" width="52" height="5" fill="#9A8870" opacity="0.7"/>
  <!-- Wall battlements -->
  <rect x="62" y="98" width="11" height="14" rx="2" fill="#A89878"/>
  <rect x="79" y="98" width="11" height="14" rx="2" fill="#A89878"/>
  <rect x="96" y="98" width="11" height="14" rx="2" fill="#A89878"/>
  <rect x="166" y="98" width="11" height="14" rx="2" fill="#A89878"/>
  <rect x="183" y="98" width="11" height="14" rx="2" fill="#A89878"/>
  <rect x="200" y="98" width="11" height="14" rx="2" fill="#A89878"/>

  <!-- LEFT TOWER -->
  <rect x="22" y="72" width="48" height="100" fill="#B0A088"/>
  <rect x="22" y="72" width="7" height="100" fill="#9A8A78"/>
  <!-- Left tower stone rows -->
  <rect x="22" y="80" width="48" height="5" fill="#9A8A78" opacity="0.6"/>
  <rect x="22" y="96" width="48" height="5" fill="#9A8A78" opacity="0.6"/>
  <rect x="22" y="112" width="48" height="5" fill="#9A8A78" opacity="0.6"/>
  <rect x="22" y="128" width="48" height="5" fill="#9A8A78" opacity="0.6"/>
  <rect x="22" y="144" width="48" height="5" fill="#9A8A78" opacity="0.6"/>
  <rect x="22" y="160" width="48" height="5" fill="#9A8A78" opacity="0.6"/>
  <!-- Left tower battlements -->
  <rect x="22" y="58" width="12" height="18" rx="2" fill="#B0A088"/>
  <rect x="38" y="58" width="12" height="18" rx="2" fill="#B0A088"/>
  <rect x="54" y="58" width="12" height="18" rx="2" fill="#B0A088"/>
  <!-- gaps darker -->
  <rect x="34" y="58" width="4" height="14" rx="1" fill="#7A6A58"/>
  <rect x="50" y="58" width="4" height="14" rx="1" fill="#7A6A58"/>
  <!-- Left tower windows -->
  <rect x="36" y="88" width="14" height="20" rx="7" fill="#4A6080"/>
  <rect x="38" y="90" width="5" height="9" rx="3" fill="#6A8AAA" opacity="0.6"/>
  <rect x="36" y="120" width="14" height="20" rx="7" fill="#4A6080"/>
  <rect x="38" y="122" width="5" height="9" rx="3" fill="#6A8AAA" opacity="0.6"/>
  <rect x="36" y="150" width="14" height="18" rx="7" fill="#4A6080"/>

  <!-- RIGHT TOWER -->
  <rect x="210" y="72" width="48" height="100" fill="#B0A088"/>
  <rect x="251" y="72" width="7" height="100" fill="#9A8A78"/>
  <!-- Right tower stone rows -->
  <rect x="210" y="80" width="48" height="5" fill="#9A8A78" opacity="0.6"/>
  <rect x="210" y="96" width="48" height="5" fill="#9A8A78" opacity="0.6"/>
  <rect x="210" y="112" width="48" height="5" fill="#9A8A78" opacity="0.6"/>
  <rect x="210" y="128" width="48" height="5" fill="#9A8A78" opacity="0.6"/>
  <rect x="210" y="144" width="48" height="5" fill="#9A8A78" opacity="0.6"/>
  <rect x="210" y="160" width="48" height="5" fill="#9A8A78" opacity="0.6"/>
  <!-- Right tower battlements -->
  <rect x="210" y="58" width="12" height="18" rx="2" fill="#B0A088"/>
  <rect x="226" y="58" width="12" height="18" rx="2" fill="#B0A088"/>
  <rect x="242" y="58" width="12" height="18" rx="2" fill="#B0A088"/>
  <rect x="222" y="58" width="4" height="14" rx="1" fill="#7A6A58"/>
  <rect x="238" y="58" width="4" height="14" rx="1" fill="#7A6A58"/>
  <!-- Right tower windows -->
  <rect x="230" y="88" width="14" height="20" rx="7" fill="#4A6080"/>
  <rect x="232" y="90" width="5" height="9" rx="3" fill="#6A8AAA" opacity="0.6"/>
  <rect x="230" y="120" width="14" height="20" rx="7" fill="#4A6080"/>
  <rect x="232" y="122" width="5" height="9" rx="3" fill="#6A8AAA" opacity="0.6"/>
  <rect x="230" y="150" width="14" height="18" rx="7" fill="#4A6080"/>

  <!-- CENTRAL TOWER (tallest) -->
  <rect x="108" y="24" width="64" height="148" fill="#BAA890"/>
  <rect x="108" y="24" width="9" height="148" fill="#A89878"/>
  <!-- Central tower stone rows -->
  <rect x="108" y="34" width="64" height="5" fill="#A89878" opacity="0.6"/>
  <rect x="108" y="50" width="64" height="5" fill="#A89878" opacity="0.6"/>
  <rect x="108" y="66" width="64" height="5" fill="#A89878" opacity="0.6"/>
  <rect x="108" y="82" width="64" height="5" fill="#A89878" opacity="0.6"/>
  <rect x="108" y="98" width="64" height="5" fill="#A89878" opacity="0.6"/>
  <rect x="108" y="114" width="64" height="5" fill="#A89878" opacity="0.6"/>
  <rect x="108" y="130" width="64" height="5" fill="#A89878" opacity="0.6"/>
  <rect x="108" y="146" width="64" height="5" fill="#A89878" opacity="0.6"/>
  <!-- Central tower battlements -->
  <rect x="108" y="10" width="13" height="18" rx="2" fill="#BAA890"/>
  <rect x="125" y="10" width="13" height="18" rx="2" fill="#BAA890"/>
  <rect x="142" y="10" width="13" height="18" rx="2" fill="#BAA890"/>
  <rect x="159" y="10" width="13" height="18" rx="2" fill="#BAA890"/>
  <rect x="121" y="10" width="4" height="14" rx="1" fill="#7A6A58"/>
  <rect x="138" y="10" width="4" height="14" rx="1" fill="#7A6A58"/>
  <rect x="155" y="10" width="4" height="14" rx="1" fill="#7A6A58"/>
  <!-- Central tower windows -->
  <rect x="126" y="38" width="18" height="26" rx="9" fill="#4A6080"/>
  <rect x="128" y="40" width="7" height="12" rx="4" fill="#6A8AAA" opacity="0.65"/>
  <rect x="126" y="76" width="18" height="26" rx="9" fill="#4A6080"/>
  <rect x="128" y="78" width="7" height="12" rx="4" fill="#6A8AAA" opacity="0.65"/>
  <rect x="126" y="114" width="18" height="26" rx="9" fill="#4A6080"/>
  <rect x="128" y="116" width="7" height="12" rx="4" fill="#6A8AAA" opacity="0.65"/>

  <!-- GATE / ENTRANCE -->
  <rect x="118" y="130" width="44" height="42" rx="4" fill="#3A3040"/>
  <path d="M118,152 Q140,126 162,152" fill="#3A3040"/>
  <!-- Portcullis -->
  <line x1="126" y1="135" x2="126" y2="172" stroke="#5A5068" stroke-width="2"/>
  <line x1="136" y1="132" x2="136" y2="172" stroke="#5A5068" stroke-width="2"/>
  <line x1="146" y1="132" x2="146" y2="172" stroke="#5A5068" stroke-width="2"/>
  <line x1="156" y1="135" x2="156" y2="172" stroke="#5A5068" stroke-width="2"/>
  <line x1="118" y1="144" x2="162" y2="144" stroke="#5A5068" stroke-width="2"/>
  <line x1="118" y1="156" x2="162" y2="156" stroke="#5A5068" stroke-width="2"/>
  <line x1="118" y1="166" x2="162" y2="166" stroke="#5A5068" stroke-width="2"/>

  <!-- FLAG on central tower -->
  <line x1="140" y1="10" x2="140" y2="-2" stroke="#8A8878" stroke-width="2"/>
  <path d="M140,0 L165,7 L140,14 Z" fill="#E53935"/>
  <path d="M140,0 L165,7 L140,7 Z" fill="#EF9A9A" opacity="0.5"/>

</svg>
